# xmcd
# Track frame offsets:
# 150
# 9315
# 19555
# 27595
# 41897
# 53447
# 62250
# 69882
# 82232
# 91485
# 99482
# 107737
# 117665
# 125322
#
# Disc length: 1874 seconds
# Revision: 0
# Processed by: cddbd v1.4PL0 Copyright (c) Steve Scherf et al.
# Submitted via: VisiTrax 2.9.3.170 - For more info visit www.synapsa.com
#
DISCID=ae07500e
DTITLE=Reeves Jim - Your Old Love Letters Vol.2
DYEAR=1900
DGENRE=
TTITLE0=Billy Bayou
TTITLE1=Dear Hearts And Gentle People
TTITLE2=Everywhere You Go
TTITLE3=Highway To Nowhere
TTITLE4=I Love You More
TTITLE5=If You Were Mine
TTITLE6=Oklahoma Hills
TTITLE7=Your Old Love Letters
TTITLE8=Wind Up Doll
TTITLE9=Roly Poly (Live)
TTITLE10=Sweet Evening Breeze (Bring My Baby Back To Me)
TTITLE11=Home
TTITLE12=I Know One
TTITLE13=Making Believe
EXTD=
EXTT0=
EXTT1=
EXTT2=
EXTT3=
EXTT4=
EXTT5=
EXTT6=
EXTT7=
EXTT8=
EXTT9=
EXTT10=
EXTT11=
EXTT12=
EXTT13=
PLAYORDER=
